<svg xmlns="http://www.w3.org/2000/svg" width="1324.894775390625" height="1149.862548828125" viewBox="-698.9105834960938 -600.276611328125 1324.894775390625 1149.862548828125"><title>Neo4j Graph Visualization</title><desc>Created using Neo4j (http://www.neo4j.com/)</desc><g class="layer relationships"><g class="relationship" transform="translate(-233.2630263695803 -371.6270571180661) rotate(496.5166678680243)"><path class="outline" fill="#FFE081" stroke="none" d="M 32.5 2.5 L 66.50978388410056 2.5 L 66.50978388410056 -2.5 L 32.5 -2.5 Z M 88.08009638410056 2.5 L 122.08988026820111 2.5 L 122.08988026820111 5.5 L 133.0898802682011 0 L 122.08988026820111 -5.5 L 122.08988026820111 -2.5 L 88.08009638410056 -2.5 Z"/><text text-anchor="middle" pointer-events="none" font-size="8px" fill="#000000" x="77.29494013410056" y="3" transform="rotate(180 77.29494013410056 0)" font-family="sans-serif">53.3</text></g><g class="relationship" transform="translate(-233.2630263695803 -371.6270571180661) rotate(180.00991831642898)"><path class="outline" fill="#FFE081" stroke="none" d="M 32.5 2.5 L 34.208385832964744 2.5 L 34.208385832964744 -2.5 L 32.5 -2.5 Z M 55.778698332964744 2.5 L 57.48708416592949 2.5 L 57.48708416592949 5.5 L 68.48708416592949 0 L 57.48708416592949 -5.5 L 57.48708416592949 -2.5 L 55.778698332964744 -2.5 Z"/><text text-anchor="middle" pointer-events="none" font-size="8px" fill="#000000" x="44.993542082964744" y="3" transform="rotate(180 44.993542082964744 0)" font-family="sans-serif">23.2</text></g><g class="relationship" transform="translate(-233.2630263695803 -371.6270571180661) rotate(405.5339327121574)"><path class="outline" fill="#FFE081" stroke="none" d="M 32.5 2.5 L 40.425423739072116 2.5 L 40.425423739072116 -2.5 L 32.5 -2.5 Z M 40.425423739072116 2.5 L 48.35084747814423 2.5 L 48.35084747814423 5.5 L 59.35084747814423 0 L 48.35084747814423 -5.5 L 48.35084747814423 -2.5 L 40.425423739072116 -2.5 Z"/><text text-anchor="middle" pointer-events="none" font-size="8px" fill="#000000" x="40.425423739072116" y="3" font-family="sans-serif"/></g><g class="relationship" transform="translate(-233.2630263695803 -371.6270571180661) rotate(347.00914039411373)"><path class="outline" fill="#FFE081" stroke="none" d="M 32.5 2.5 L 66.74492786775 2.5 L 66.74492786775 -2.5 L 32.5 -2.5 Z M 88.31524036775 2.5 L 122.56016823549999 2.5 L 122.56016823549999 5.5 L 133.5601682355 0 L 122.56016823549999 -5.5 L 122.56016823549999 -2.5 L 88.31524036775 -2.5 Z"/><text text-anchor="middle" pointer-events="none" font-size="8px" fill="#000000" x="77.53008411775" y="3" font-family="sans-serif">67.1</text></g><g class="relationship" transform="translate(-233.2630263695803 -371.6270571180661) rotate(309.97698704690504)"><path class="outline" fill="#FFE081" stroke="none" d="M 32.5 2.5 L 48.59629788763688 2.5 L 48.59629788763688 -2.5 L 32.5 -2.5 Z M 70.16661038763688 2.5 L 86.26290827527376 2.5 L 86.26290827527376 5.5 L 97.26290827527376 0 L 86.26290827527376 -5.5 L 86.26290827527376 -2.5 L 70.16661038763688 -2.5 Z"/><text text-anchor="middle" pointer-events="none" font-size="8px" fill="#000000" x="59.38145413763688" y="3" font-family="sans-serif">85.3</text></g><g class="relationship" transform="translate(-107.415564959167 -563.7765991087826) rotate(474.6156243313573)"><path class="outline" fill="#FFE081" stroke="none" d="M 32.5 2.5 L 34.70461003803856 2.5 L 34.70461003803856 -2.5 L 32.5 -2.5 Z M 56.27492253803856 2.5 L 58.47953257607712 2.5 L 58.47953257607712 5.5 L 69.47953257607712 0 L 58.47953257607712 -5.5 L 58.47953257607712 -2.5 L 56.27492253803856 -2.5 Z"/><text text-anchor="middle" pointer-events="none" font-size="8px" fill="#000000" x="45.48976628803856" y="3" transform="rotate(180 45.48976628803856 0)" font-family="sans-serif">15.5</text></g><g class="relationship" transform="translate(-149.8929693182095 -471.0647056789019) rotate(398.3718641449821)"><path class="outline" fill="#FFE081" stroke="none" d="M 32.5 2.5 L 33.74042958612025 2.5 L 33.74042958612025 -2.5 L 32.5 -2.5 Z M 55.31074208612025 2.5 L 56.5511716722405 2.5 L 56.5511716722405 5.5 L 67.5511716722405 0 L 56.5511716722405 -5.5 L 56.5511716722405 -2.5 L 55.31074208612025 -2.5 Z"/><text text-anchor="middle" pointer-events="none" font-size="8px" fill="#000000" x="44.52558583612025" y="3" font-family="sans-serif">49.2</text></g><g class="relationship" transform="translate(-149.8929693182095 -471.0647056789019) rotate(364.8929537314748)"><path class="outline" fill="#FFE081" stroke="none" d="M 32.5 2.5 L 63.54796239058112 2.5 L 63.54796239058112 -2.5 L 32.5 -2.5 Z M 85.11827489058112 2.5 L 116.16623728116224 2.5 L 116.16623728116224 5.5 L 127.16623728116224 0 L 116.16623728116224 -5.5 L 116.16623728116224 -2.5 L 85.11827489058112 -2.5 Z"/><text text-anchor="middle" pointer-events="none" font-size="8px" fill="#000000" x="74.33311864058112" y="3" font-family="sans-serif">47.3</text></g><g class="relationship" transform="translate(9.191411188038895 -457.44607114868666) rotate(508.98258942626023)"><path class="outline" fill="#FFE081" stroke="none" d="M 32.5 2.5 L 41.5498315823986 2.5 L 41.5498315823986 -2.5 L 32.5 -2.5 Z M 41.5498315823986 2.5 L 50.59966316479721 2.5 L 50.59966316479721 5.5 L 61.59966316479721 0 L 50.59966316479721 -5.5 L 50.59966316479721 -2.5 L 41.5498315823986 -2.5 Z"/><text text-anchor="middle" pointer-events="none" font-size="8px" fill="#000000" x="41.5498315823986" y="3" transform="rotate(180 41.5498315823986 0)" font-family="sans-serif"/></g><g class="relationship" transform="translate(140.65728954692037 -391.79862892988234) rotate(375.9835529388232)"><path class="outline" fill="#FFE081" stroke="none" d="M 32.5 2.5 L 166.2723465704633 2.5 L 166.2723465704633 -2.5 L 32.5 -2.5 Z M 185.6200028204633 2.5 L 319.3923493909266 2.5 L 319.3923493909266 5.5 L 330.3923493909266 0 L 319.3923493909266 -5.5 L 319.3923493909266 -2.5 L 185.6200028204633 -2.5 Z"/><text text-anchor="middle" pointer-events="none" font-size="8px" fill="#000000" x="175.9461746954633" y="3" font-family="sans-serif">125</text></g><g class="relationship" transform="translate(140.65728954692037 -391.79862892988234) rotate(206.5352342283527)"><path class="outline" fill="#FFE081" stroke="none" d="M 32.5 2.5 L 57.18739618038633 2.5 L 57.18739618038633 -2.5 L 32.5 -2.5 Z M 78.75770868038633 2.5 L 103.44510486077266 2.5 L 103.44510486077266 5.5 L 114.44510486077266 0 L 103.44510486077266 -5.5 L 103.44510486077266 -2.5 L 78.75770868038633 -2.5 Z"/><text text-anchor="middle" pointer-events="none" font-size="8px" fill="#000000" x="67.97255243038633" y="3" transform="rotate(180 67.97255243038633 0)" font-family="sans-serif">63.5</text></g><g class="relationship" transform="translate(140.65728954692037 -391.79862892988234) rotate(522.8378876403011)"><path class="outline" fill="#FFE081" stroke="none" d="M 32.5 2.5 L 45.497450134652105 2.5 L 45.497450134652105 -2.5 L 32.5 -2.5 Z M 67.0677626346521 2.5 L 80.06521276930421 2.5 L 80.06521276930421 5.5 L 91.06521276930421 0 L 80.06521276930421 -5.5 L 80.06521276930421 -2.5 L 67.0677626346521 -2.5 Z"/><text text-anchor="middle" pointer-events="none" font-size="8px" fill="#000000" x="56.282606384652105" y="3" transform="rotate(180 56.282606384652105 0)" font-family="sans-serif">65.7</text></g><g class="relationship" transform="translate(140.65728954692037 -391.79862892988234) rotate(455.21147761350966)"><path class="outline" fill="#FFE081" stroke="none" d="M 32.5 2.5 L 82.50929398601474 2.5 L 82.50929398601474 -2.5 L 32.5 -2.5 Z M 101.26320023601474 2.5 L 151.27249422202948 2.5 L 151.27249422202948 5.5 L 162.27249422202948 0 L 151.27249422202948 -5.5 L 151.27249422202948 -2.5 L 101.26320023601474 -2.5 Z"/><text text-anchor="middle" pointer-events="none" font-size="8px" fill="#000000" x="91.88624711101474" y="3" transform="rotate(180 91.88624711101474 0)" font-family="sans-serif">110</text></g><g class="relationship" transform="translate(489.5205035907795 -291.8720802380815) rotate(509.68645369424326)"><path class="outline" fill="#FFE081" stroke="none" d="M 32.5 2.5 L 40.919147390819916 2.5 L 40.919147390819916 -2.5 L 32.5 -2.5 Z M 62.489459890819916 2.5 L 70.90860728163983 2.5 L 70.90860728163983 5.5 L 81.90860728163983 0 L 70.90860728163983 -5.5 L 70.90860728163983 -2.5 L 62.489459890819916 -2.5 Z"/><text text-anchor="middle" pointer-events="none" font-size="8px" fill="#000000" x="51.704303640819916" y="3" transform="rotate(180 51.704303640819916 0)" font-family="sans-serif">43.4</text></g><g class="relationship" transform="translate(489.5205035907795 -291.8720802380815) rotate(396.68130849462966)"><path class="outline" fill="#FFE081" stroke="none" d="M 32.5 2.5 L 46.03862054997486 2.5 L 46.03862054997486 -2.5 L 32.5 -2.5 Z M 67.60893304997487 2.5 L 81.14755359994972 2.5 L 81.14755359994972 5.5 L 92.14755359994972 0 L 81.14755359994972 -5.5 L 81.14755359994972 -2.5 L 67.60893304997487 -2.5 Z"/><text text-anchor="middle" pointer-events="none" font-size="8px" fill="#000000" x="56.82377679997486" y="3" font-family="sans-serif">36.9</text></g><g class="relationship" transform="translate(589.4841724298749 -217.412174713833) rotate(524.6510048574646)"><path class="outline" fill="#FFE081" stroke="none" d="M 32.5 2.5 L 33.72615126903725 2.5 L 33.72615126903725 -2.5 L 32.5 -2.5 Z M 52.17537001903725 2.5 L 53.401521288074505 2.5 L 53.401521288074505 5.5 L 64.4015212880745 0 L 53.401521288074505 -5.5 L 53.401521288074505 -2.5 L 52.17537001903725 -2.5 Z"/><text text-anchor="middle" pointer-events="none" font-size="8px" fill="#000000" x="42.95076064403725" y="3" transform="rotate(180 42.95076064403725 0)" font-family="sans-serif">2…</text></g><g class="relationship" transform="translate(496.0389907118898 -191.76255792067397) rotate(201.9185876716885)"><path class="outline" fill="#FFE081" stroke="none" d="M 32.5 2.5 L 40.45893907232622 2.5 L 40.45893907232622 -2.5 L 32.5 -2.5 Z M 62.02925157232622 2.5 L 69.98819064465243 2.5 L 69.98819064465243 5.5 L 80.98819064465243 0 L 69.98819064465243 -5.5 L 69.98819064465243 -2.5 L 62.02925157232622 -2.5 Z"/><text text-anchor="middle" pointer-events="none" font-size="8px" fill="#000000" x="51.24409532232622" y="3" transform="rotate(180 51.24409532232622 0)" font-family="sans-serif">38.7</text></g><g class="relationship" transform="translate(390.75427102101116 -234.12642478159785) rotate(516.0570196563604)"><path class="outline" fill="#FFE081" stroke="none" d="M 32.5 2.5 L 47.950391146792484 2.5 L 47.950391146792484 -2.5 L 32.5 -2.5 Z M 69.52070364679248 2.5 L 84.97109479358497 2.5 L 84.97109479358497 5.5 L 95.97109479358497 0 L 84.97109479358497 -5.5 L 84.97109479358497 -2.5 L 69.52070364679248 -2.5 Z"/><text text-anchor="middle" pointer-events="none" font-size="8px" fill="#000000" x="58.735547396792484" y="3" transform="rotate(180 58.735547396792484 0)" font-family="sans-serif">52.3</text></g><g class="relationship" transform="translate(273.33814198359954 -181.98934738621443) rotate(186.01400115155468)"><path class="outline" fill="#FFE081" stroke="none" d="M 32.5 2.5 L 59.31715572184355 2.5 L 59.31715572184355 -2.5 L 32.5 -2.5 Z M 80.88746822184355 2.5 L 107.7046239436871 2.5 L 107.7046239436871 5.5 L 118.7046239436871 0 L 107.7046239436871 -5.5 L 107.7046239436871 -2.5 L 80.88746822184355 -2.5 Z"/><text text-anchor="middle" pointer-events="none" font-size="8px" fill="#000000" x="70.10231197184355" y="3" transform="rotate(180 70.10231197184355 0)" font-family="sans-serif">56.9</text></g><g class="relationship" transform="translate(122.96569953386971 -197.8312807800439) rotate(191.0510901257485)"><path class="outline" fill="#FFE081" stroke="none" d="M 32.5 2.5 L 88.823061782595 2.5 L 88.823061782595 -2.5 L 32.5 -2.5 Z M 108.170718032595 2.5 L 164.49377981519 2.5 L 164.49377981519 5.5 L 175.49377981519 0 L 164.49377981519 -5.5 L 164.49377981519 -2.5 L 108.170718032595 -2.5 Z"/><text text-anchor="middle" pointer-events="none" font-size="8px" fill="#000000" x="98.496889907595" y="3" transform="rotate(180 98.496889907595 0)" font-family="sans-serif">108</text></g><g class="relationship" transform="translate(122.96569953386971 -197.8312807800439) rotate(237.49244115064658)"><path class="outline" fill="#FFE081" stroke="none" d="M 32.5 2.5 L 78.21069943231004 2.5 L 78.21069943231004 -2.5 L 32.5 -2.5 Z M 97.55835568231004 2.5 L 143.26905511462007 2.5 L 143.26905511462007 5.5 L 154.26905511462007 0 L 143.26905511462007 -5.5 L 143.26905511462007 -2.5 L 97.55835568231004 -2.5 Z"/><text text-anchor="middle" pointer-events="none" font-size="8px" fill="#000000" x="87.88452755731004" y="3" transform="rotate(180 87.88452755731004 0)" font-family="sans-serif">124</text></g><g class="relationship" transform="translate(22.59397920795726 -355.3374638562165) rotate(491.4148343207379)"><path class="outline" fill="#FFE081" stroke="none" d="M 32.5 2.5 L 62.145840507248494 2.5 L 62.145840507248494 -2.5 L 32.5 -2.5 Z M 83.7161530072485 2.5 L 113.36199351449699 2.5 L 113.36199351449699 5.5 L 124.36199351449699 0 L 113.36199351449699 -5.5 L 113.36199351449699 -2.5 L 83.7161530072485 -2.5 Z"/><text text-anchor="middle" pointer-events="none" font-size="8px" fill="#000000" x="72.9309967572485" y="3" transform="rotate(180 72.9309967572485 0)" font-family="sans-serif">83.2</text></g><g class="relationship" transform="translate(22.59397920795726 -355.3374638562165) rotate(209.68884400873304)"><path class="outline" fill="#FFE081" stroke="none" d="M 32.5 2.5 L 37.843981349989306 2.5 L 37.843981349989306 -2.5 L 32.5 -2.5 Z M 59.414293849989306 2.5 L 64.75827519997861 2.5 L 64.75827519997861 5.5 L 75.75827519997861 0 L 64.75827519997861 -5.5 L 64.75827519997861 -2.5 L 59.414293849989306 -2.5 Z"/><text text-anchor="middle" pointer-events="none" font-size="8px" fill="#000000" x="48.629137599989306" y="3" transform="rotate(180 48.629137599989306 0)" font-family="sans-serif">32.1</text></g><g class="relationship" transform="translate(22.59397920795726 -355.3374638562165) rotate(262.52222105153476)"><path class="outline" fill="#FFE081" stroke="none" d="M 32.5 2.5 L 35.20706770842023 2.5 L 35.20706770842023 -2.5 L 32.5 -2.5 Z M 56.77738020842023 2.5 L 59.484447916840466 2.5 L 59.484447916840466 5.5 L 70.48444791684047 0 L 59.484447916840466 -5.5 L 59.484447916840466 -2.5 L 56.77738020842023 -2.5 Z"/><text text-anchor="middle" pointer-events="none" font-size="8px" fill="#000000" x="45.99222395842023" y="3" transform="rotate(180 45.99222395842023 0)" font-family="sans-serif">42.2</text></g><g class="relationship" transform="translate(-168.922726782705 -306.0762826640259) rotate(397.9256682455679)"><path class="outline" fill="#FFE081" stroke="none" d="M 32.5 2.5 L 39.33766823534462 2.5 L 39.33766823534462 -2.5 L 32.5 -2.5 Z M 60.90798073534462 2.5 L 67.74564897068925 2.5 L 67.74564897068925 5.5 L 78.74564897068925 0 L 67.74564897068925 -5.5 L 67.74564897068925 -2.5 L 60.90798073534462 -2.5 Z"/><text text-anchor="middle" pointer-events="none" font-size="8px" fill="#000000" x="50.12282448534462" y="3" font-family="sans-serif">44.9</text></g><g class="relationship" transform="translate(-353.41083568418657 -257.6774526249473) rotate(457.53687176342703)"><path class="outline" fill="#FFE081" stroke="none" d="M 32.5 2.5 L 87.72400254994253 2.5 L 87.72400254994253 -2.5 L 32.5 -2.5 Z M 107.07165879994253 2.5 L 162.29566134988505 2.5 L 162.29566134988505 5.5 L 173.29566134988505 0 L 162.29566134988505 -5.5 L 162.29566134988505 -2.5 L 107.07165879994253 -2.5 Z"/><text text-anchor="middle" pointer-events="none" font-size="8px" fill="#000000" x="97.39783067494253" y="3" transform="rotate(180 97.39783067494253 0)" font-family="sans-serif">145</text></g><g class="relationship" transform="translate(-353.41083568418657 -257.6774526249473) rotate(524.9653852163046)"><path class="outline" fill="#FFE081" stroke="none" d="M 32.5 2.5 L 104.41268260488376 2.5 L 104.41268260488376 -2.5 L 32.5 -2.5 Z M 123.16658885488376 2.5 L 195.0792714597675 2.5 L 195.0792714597675 5.5 L 206.0792714597675 0 L 195.0792714597675 -5.5 L 195.0792714597675 -2.5 L 123.16658885488376 -2.5 Z"/><text text-anchor="middle" pointer-events="none" font-size="8px" fill="#000000" x="113.78963572988376" y="3" transform="rotate(180 113.78963572988376 0)" font-family="sans-serif">113</text></g><g class="relationship" transform="translate(-583.8233684750828 -195.78938024296409) rotate(394.94208288427785)"><path class="outline" fill="#FFE081" stroke="none" d="M 32.5 2.5 L 108.90309840146284 2.5 L 108.90309840146284 -2.5 L 32.5 -2.5 Z M 128.25075465146284 2.5 L 204.65385305292568 2.5 L 204.65385305292568 5.5 L 215.65385305292568 0 L 204.65385305292568 -5.5 L 204.65385305292568 -2.5 L 128.25075465146284 -2.5 Z"/><text text-anchor="middle" pointer-events="none" font-size="8px" fill="#000000" x="118.57692652646284" y="3" font-family="sans-serif">151</text></g><g class="relationship" transform="translate(-583.8233684750828 -195.78938024296409) rotate(485.53495072014664)"><path class="outline" fill="#FFE081" stroke="none" d="M 32.5 2.5 L 52.433965126680974 2.5 L 52.433965126680974 -2.5 L 32.5 -2.5 Z M 71.78162137668097 2.5 L 91.71558650336195 2.5 L 91.71558650336195 5.5 L 102.71558650336195 0 L 91.71558650336195 -5.5 L 91.71558650336195 -2.5 L 71.78162137668097 -2.5 Z"/><text text-anchor="middle" pointer-events="none" font-size="8px" fill="#000000" x="62.107793251680974" y="3" transform="rotate(180 62.107793251680974 0)" font-family="sans-serif">109</text></g><g class="relationship" transform="translate(-380.4038575900478 -53.659730358409234) rotate(405.43480052195815)"><path class="outline" fill="#FFE081" stroke="none" d="M 32.5 2.5 L 91.34857755867674 2.5 L 91.34857755867674 -2.5 L 32.5 -2.5 Z M 110.69623380867674 2.5 L 169.54481136735347 2.5 L 169.54481136735347 5.5 L 180.54481136735347 0 L 169.54481136735347 -5.5 L 169.54481136735347 -2.5 L 110.69623380867674 -2.5 Z"/><text text-anchor="middle" pointer-events="none" font-size="8px" fill="#000000" x="101.02240568367674" y="3" font-family="sans-serif">104</text></g><g class="relationship" transform="translate(-380.4038575900478 -53.659730358409234) rotate(482.1907239152156)"><path class="outline" fill="#FFE081" stroke="none" d="M 32.5 2.5 L 55.15999497143865 2.5 L 55.15999497143865 -2.5 L 32.5 -2.5 Z M 70.05843247143865 2.5 L 92.7184274428773 2.5 L 92.7184274428773 5.5 L 103.7184274428773 0 L 92.7184274428773 -5.5 L 92.7184274428773 -2.5 L 70.05843247143865 -2.5 Z"/><text text-anchor="middle" pointer-events="none" font-size="8px" fill="#000000" x="62.60921372143865" y="3" transform="rotate(180 62.60921372143865 0)" font-family="sans-serif">99</text></g><g class="relationship" transform="translate(-452.97276344796325 61.61912233190613) rotate(406.79037060005743)"><path class="outline" fill="#FFE081" stroke="none" d="M 32.5 2.5 L 63.104531009974934 2.5 L 63.104531009974934 -2.5 L 32.5 -2.5 Z M 84.67484350997493 2.5 L 115.27937451994987 2.5 L 115.27937451994987 5.5 L 126.27937451994987 0 L 115.27937451994987 -5.5 L 115.27937451994987 -2.5 L 84.67484350997493 -2.5 Z"/><text text-anchor="middle" pointer-events="none" font-size="8px" fill="#000000" x="73.88968725997493" y="3" font-family="sans-serif">88.2</text></g><g class="relationship" transform="translate(-230.9059565811964 98.12455487724651) rotate(413.6907802554699)"><path class="outline" fill="#FFE081" stroke="none" d="M 32.5 2.5 L 73.54963853185465 2.5 L 73.54963853185465 -2.5 L 32.5 -2.5 Z M 95.11995103185465 2.5 L 136.1695895637093 2.5 L 136.1695895637093 5.5 L 147.1695895637093 0 L 136.1695895637093 -5.5 L 136.1695895637093 -2.5 L 95.11995103185465 -2.5 Z"/><text text-anchor="middle" pointer-events="none" font-size="8px" fill="#000000" x="84.33479478185465" y="3" font-family="sans-serif">67.4</text></g><g class="relationship" transform="translate(-230.9059565811964 98.12455487724651) rotate(505.0511848094073)"><path class="outline" fill="#FFE081" stroke="none" d="M 32.5 2.5 L 52.86231031934827 2.5 L 52.86231031934827 -2.5 L 32.5 -2.5 Z M 74.43262281934827 2.5 L 94.79493313869654 2.5 L 94.79493313869654 5.5 L 105.79493313869654 0 L 94.79493313869654 -5.5 L 94.79493313869654 -2.5 L 74.43262281934827 -2.5 Z"/><text text-anchor="middle" pointer-events="none" font-size="8px" fill="#000000" x="63.64746656934827" y="3" transform="rotate(180 63.64746656934827 0)" font-family="sans-serif">56.6</text></g><g class="relationship" transform="translate(-344.2613509909569 177.34603611841106) rotate(404.21658539428336)"><path class="outline" fill="#FFE081" stroke="none" d="M 32.5 2.5 L 43.65647009787105 2.5 L 43.65647009787105 -2.5 L 32.5 -2.5 Z M 65.22678259787105 2.5 L 76.3832526957421 2.5 L 76.3832526957421 5.5 L 87.3832526957421 0 L 76.3832526957421 -5.5 L 76.3832526957421 -2.5 L 65.22678259787105 -2.5 Z"/><text text-anchor="middle" pointer-events="none" font-size="8px" fill="#000000" x="54.44162634787105" y="3" font-family="sans-serif">55.8</text></g><g class="relationship" transform="translate(-258.3399724776008 260.9493314558303) rotate(408.16375190583744)"><path class="outline" fill="#FFE081" stroke="none" d="M 32.5 2.5 L 34.24211097155175 2.5 L 34.24211097155175 -2.5 L 32.5 -2.5 Z M 55.81242347155175 2.5 L 57.554534443103506 2.5 L 57.554534443103506 5.5 L 68.5545344431035 0 L 57.554534443103506 -5.5 L 57.554534443103506 -2.5 L 55.81242347155175 -2.5 Z"/><text text-anchor="middle" pointer-events="none" font-size="8px" fill="#000000" x="45.02726722155175" y="3" font-family="sans-serif">15.8</text></g><g class="relationship" transform="translate(-190.93619770978853 336.2404337094328) rotate(305.4377398590731)"><path class="outline" fill="#FFE081" stroke="none" d="M 32.5 2.5 L 40.99170469093036 2.5 L 40.99170469093036 -2.5 L 32.5 -2.5 Z M 62.56201719093036 2.5 L 71.05372188186072 2.5 L 71.05372188186072 5.5 L 82.05372188186072 0 L 71.05372188186072 -5.5 L 71.05372188186072 -2.5 L 62.56201719093036 -2.5 Z"/><text text-anchor="middle" pointer-events="none" font-size="8px" fill="#000000" x="51.77686094093036" y="3" font-family="sans-serif">36.2</text></g><g class="relationship" transform="translate(-124.51589250065274 242.90824069484674) rotate(385.8284674588606)"><path class="outline" fill="#FFE081" stroke="none" d="M 32.5 2.5 L 59.33215887053643 2.5 L 59.33215887053643 -2.5 L 32.5 -2.5 Z M 80.90247137053643 2.5 L 107.73463024107286 2.5 L 107.73463024107286 5.5 L 118.73463024107286 0 L 107.73463024107286 -5.5 L 107.73463024107286 -2.5 L 80.90247137053643 -2.5 Z"/><text text-anchor="middle" pointer-events="none" font-size="8px" fill="#000000" x="70.11731512053643" y="3" font-family="sans-serif">64.5</text></g><g class="relationship" transform="translate(-81.24200605470875 409.8413358378804) rotate(312.581118786106)"><path class="outline" fill="#FFE081" stroke="none" d="M 32.5 2.5 L 52.32864186215531 2.5 L 52.32864186215531 -2.5 L 32.5 -2.5 Z M 73.89895436215531 2.5 L 93.72759622431062 2.5 L 93.72759622431062 5.5 L 104.72759622431062 0 L 93.72759622431062 -5.5 L 93.72759622431062 -2.5 L 73.89895436215531 -2.5 Z"/><text text-anchor="middle" pointer-events="none" font-size="8px" fill="#000000" x="63.11379811215531" y="3" font-family="sans-serif">36.6</text></g><g class="relationship" transform="translate(-81.24200605470875 409.8413358378804) rotate(213.86020643547852)"><path class="outline" fill="#FFE081" stroke="none" d="M 32.5 2.5 L 49.76389460802274 2.5 L 49.76389460802274 -2.5 L 32.5 -2.5 Z M 71.33420710802274 2.5 L 88.59810171604548 2.5 L 88.59810171604548 5.5 L 99.59810171604548 0 L 88.59810171604548 -5.5 L 88.59810171604548 -2.5 L 71.33420710802274 -2.5 Z"/><text text-anchor="middle" pointer-events="none" font-size="8px" fill="#000000" x="60.54905085802274" y="3" transform="rotate(180 60.54905085802274 0)" font-family="sans-serif">88.8</text></g><g class="relationship" transform="translate(-81.24200605470875 409.8413358378804) rotate(404.9409444642798)"><path class="outline" fill="#FFE081" stroke="none" d="M 32.5 2.5 L 57.90654353777727 2.5 L 57.90654353777727 -2.5 L 32.5 -2.5 Z M 77.25419978777727 2.5 L 102.66074332555453 2.5 L 102.66074332555453 5.5 L 113.66074332555453 0 L 102.66074332555453 -5.5 L 102.66074332555453 -2.5 L 77.25419978777727 -2.5 Z"/><text text-anchor="middle" pointer-events="none" font-size="8px" fill="#000000" x="67.58037166277727" y="3" font-family="sans-serif">153</text></g></g><g class="layer nodes"><g class="node" transform="translate(-233.2630263695803,-371.6270571180661)"><circle class="outline" cx="0" cy="0" r="32.5" fill="#57C7E3" stroke="#23b3d7" stroke-width="2px"/><text text-anchor="middle" pointer-events="none" font-family="sans-serif" dy="2.03125" font-size="32.5" fill="#FFFFFF"/><text text-anchor="middle" pointer-events="none" y="5" font-size="10px" fill="#FFFFFF" font-family="sans-serif"> Zagreb</text></g><g class="node" transform="translate(-107.415564959167,-563.7765991087826)"><circle class="outline" cx="0" cy="0" r="32.5" fill="#57C7E3" stroke="#23b3d7" stroke-width="2px"/><text text-anchor="middle" pointer-events="none" font-family="sans-serif" dy="2.03125" font-size="32.5" fill="#FFFFFF"/><text text-anchor="middle" pointer-events="none" y="5" font-size="10px" fill="#FFFFFF" font-family="sans-serif"> Cakovec</text></g><g class="node" transform="translate(-149.8929693182095,-471.0647056789019)"><circle class="outline" cx="0" cy="0" r="32.5" fill="#57C7E3" stroke="#23b3d7" stroke-width="2px"/><text text-anchor="middle" pointer-events="none" font-family="sans-serif" dy="2.03125" font-size="32.5" fill="#FFFFFF"/><text text-anchor="middle" pointer-events="none" y="5" font-size="10px" fill="#FFFFFF" font-family="sans-serif"> Varazdin</text></g><g class="node" transform="translate(9.191411188038895,-457.44607114868666)"><circle class="outline" cx="0" cy="0" r="32.5" fill="#57C7E3" stroke="#23b3d7" stroke-width="2px"/><text text-anchor="middle" pointer-events="none" font-family="sans-serif" dy="2.03125" font-size="32.5" fill="#FFFFFF"/><text text-anchor="middle" pointer-events="none" y="5" font-size="10px" fill="#FFFFFF" font-family="sans-serif"> Koprivnica</text></g><g class="node" transform="translate(140.65728954692037,-391.79862892988234)"><circle class="outline" cx="0" cy="0" r="32.5" fill="#57C7E3" stroke="#23b3d7" stroke-width="2px"/><text text-anchor="middle" pointer-events="none" font-family="sans-serif" dy="2.03125" font-size="32.5" fill="#FFFFFF"/><text text-anchor="middle" pointer-events="none" y="5" font-size="10px" fill="#FFFFFF" font-family="sans-serif"> Virovitica</text></g><g class="node" transform="translate(489.5205035907795,-291.8720802380815)"><circle class="outline" cx="0" cy="0" r="32.5" fill="#57C7E3" stroke="#23b3d7" stroke-width="2px"/><text text-anchor="middle" pointer-events="none" font-family="sans-serif" dy="2.03125" font-size="32.5" fill="#FFFFFF"/><text text-anchor="middle" pointer-events="none" y="5" font-size="10px" fill="#FFFFFF" font-family="sans-serif"> Osijek</text></g><g class="node" transform="translate(589.4841724298749,-217.412174713833)"><circle class="outline" cx="0" cy="0" r="32.5" fill="#57C7E3" stroke="#23b3d7" stroke-width="2px"/><text text-anchor="middle" pointer-events="none" font-family="sans-serif" dy="2.03125" font-size="32.5" fill="#FFFFFF"/><text text-anchor="middle" pointer-events="none" y="5" font-size="10px" fill="#FFFFFF" font-family="sans-serif"> Vukovar</text></g><g class="node" transform="translate(496.0389907118898,-191.76255792067397)"><circle class="outline" cx="0" cy="0" r="32.5" fill="#57C7E3" stroke="#23b3d7" stroke-width="2px"/><text text-anchor="middle" pointer-events="none" font-family="sans-serif" dy="2.03125" font-size="32.5" fill="#FFFFFF"/><text text-anchor="middle" pointer-events="none" y="5" font-size="10px" fill="#FFFFFF" font-family="sans-serif"> Vinkovci</text></g><g class="node" transform="translate(390.75427102101116,-234.12642478159785)"><circle class="outline" cx="0" cy="0" r="32.5" fill="#57C7E3" stroke="#23b3d7" stroke-width="2px"/><text text-anchor="middle" pointer-events="none" font-family="sans-serif" dy="2.03125" font-size="32.5" fill="#FFFFFF"/><text text-anchor="middle" pointer-events="none" y="5" font-size="10px" fill="#FFFFFF" font-family="sans-serif"> Dakovo</text></g><g class="node" transform="translate(273.33814198359954,-181.98934738621443)"><circle class="outline" cx="0" cy="0" r="32.5" fill="#57C7E3" stroke="#23b3d7" stroke-width="2px"/><text text-anchor="middle" pointer-events="none" font-family="sans-serif" dy="2.03125" font-size="32.5" fill="#FFFFFF"/><text text-anchor="middle" pointer-events="none" y="5" font-size="32.5" fill="#FFFFFF" dy="2.03125" font-family="sans-serif"/><text text-anchor="middle" pointer-events="none" y="0" font-size="10px" fill="#FFFFFF" font-family="sans-serif"> Slavonski</text><text text-anchor="middle" pointer-events="none" y="10" font-size="10px" fill="#FFFFFF" font-family="sans-serif"> Brod</text></g><g class="node" transform="translate(122.96569953386971,-197.8312807800439)"><circle class="outline" cx="0" cy="0" r="32.5" fill="#57C7E3" stroke="#23b3d7" stroke-width="2px"/><text text-anchor="middle" pointer-events="none" font-family="sans-serif" dy="2.03125" font-size="32.5" fill="#FFFFFF"/><text text-anchor="middle" pointer-events="none" y="5" font-size="32.5" fill="#FFFFFF" dy="2.03125" font-family="sans-serif"/><text text-anchor="middle" pointer-events="none" y="0" font-size="10px" fill="#FFFFFF" font-family="sans-serif"> Nova</text><text text-anchor="middle" pointer-events="none" y="10" font-size="10px" fill="#FFFFFF" font-family="sans-serif"> Gradiska</text></g><g class="node" transform="translate(22.59397920795726,-355.3374638562165)"><circle class="outline" cx="0" cy="0" r="32.5" fill="#57C7E3" stroke="#23b3d7" stroke-width="2px"/><text text-anchor="middle" pointer-events="none" font-family="sans-serif" dy="2.03125" font-size="32.5" fill="#FFFFFF"/><text text-anchor="middle" pointer-events="none" y="5" font-size="10px" fill="#FFFFFF" font-family="sans-serif"> Bjelovar</text></g><g class="node" transform="translate(-71.45301223916772,-408.95665397522805)"><circle class="outline" cx="0" cy="0" r="32.5" fill="#57C7E3" stroke="#23b3d7" stroke-width="2px"/><text text-anchor="middle" pointer-events="none" font-family="sans-serif" dy="2.03125" font-size="32.5" fill="#FFFFFF"/><text text-anchor="middle" pointer-events="none" y="5" font-size="10px" fill="#FFFFFF" font-family="sans-serif"> Krizevci</text></g><g class="node" transform="translate(-168.922726782705,-306.0762826640259)"><circle class="outline" cx="0" cy="0" r="32.5" fill="#57C7E3" stroke="#23b3d7" stroke-width="2px"/><text text-anchor="middle" pointer-events="none" font-family="sans-serif" dy="2.03125" font-size="32.5" fill="#FFFFFF"/><text text-anchor="middle" pointer-events="none" y="5" font-size="10px" fill="#FFFFFF" font-family="sans-serif"> Velika Gorica</text></g><g class="node" transform="translate(-81.1711789432499,-237.7004077760975)"><circle class="outline" cx="0" cy="0" r="32.5" fill="#57C7E3" stroke="#23b3d7" stroke-width="2px"/><text text-anchor="middle" pointer-events="none" font-family="sans-serif" dy="2.03125" font-size="32.5" fill="#FFFFFF"/><text text-anchor="middle" pointer-events="none" y="5" font-size="10px" fill="#FFFFFF" font-family="sans-serif"> Sisak</text></g><g class="node" transform="translate(-334.25010902241377,-371.6445387172258)"><circle class="outline" cx="0" cy="0" r="32.5" fill="#57C7E3" stroke="#23b3d7" stroke-width="2px"/><text text-anchor="middle" pointer-events="none" font-family="sans-serif" dy="2.03125" font-size="32.5" fill="#FFFFFF"/><text text-anchor="middle" pointer-events="none" y="5" font-size="10px" fill="#FFFFFF" font-family="sans-serif"> Samobor</text></g><g class="node" transform="translate(-353.41083568418657,-257.6774526249473)"><circle class="outline" cx="0" cy="0" r="32.5" fill="#57C7E3" stroke="#23b3d7" stroke-width="2px"/><text text-anchor="middle" pointer-events="none" font-family="sans-serif" dy="2.03125" font-size="32.5" fill="#FFFFFF"/><text text-anchor="middle" pointer-events="none" y="5" font-size="10px" fill="#FFFFFF" font-family="sans-serif"> Karlovac</text></g><g class="node" transform="translate(-583.8233684750828,-195.78938024296409)"><circle class="outline" cx="0" cy="0" r="32.5" fill="#57C7E3" stroke="#23b3d7" stroke-width="2px"/><text text-anchor="middle" pointer-events="none" font-family="sans-serif" dy="2.03125" font-size="32.5" fill="#FFFFFF"/><text text-anchor="middle" pointer-events="none" y="5" font-size="10px" fill="#FFFFFF" font-family="sans-serif"> Rijeka</text></g><g class="node" transform="translate(-662.410594644243,-85.7561910840316)"><circle class="outline" cx="0" cy="0" r="32.5" fill="#57C7E3" stroke="#23b3d7" stroke-width="2px"/><text text-anchor="middle" pointer-events="none" font-family="sans-serif" dy="2.03125" font-size="32.5" fill="#FFFFFF"/><text text-anchor="middle" pointer-events="none" y="5" font-size="10px" fill="#FFFFFF" font-family="sans-serif"> Pula</text></g><g class="node" transform="translate(-380.4038575900478,-53.659730358409234)"><circle class="outline" cx="0" cy="0" r="32.5" fill="#57C7E3" stroke="#23b3d7" stroke-width="2px"/><text text-anchor="middle" pointer-events="none" font-family="sans-serif" dy="2.03125" font-size="32.5" fill="#FFFFFF"/><text text-anchor="middle" pointer-events="none" y="5" font-size="10px" fill="#FFFFFF" font-family="sans-serif"> Gospic</text></g><g class="node" transform="translate(-452.97276344796325,61.61912233190613)"><circle class="outline" cx="0" cy="0" r="32.5" fill="#57C7E3" stroke="#23b3d7" stroke-width="2px"/><text text-anchor="middle" pointer-events="none" font-family="sans-serif" dy="2.03125" font-size="32.5" fill="#FFFFFF"/><text text-anchor="middle" pointer-events="none" y="5" font-size="10px" fill="#FFFFFF" font-family="sans-serif"> Zadar</text></g><g class="node" transform="translate(-230.9059565811964,98.12455487724651)"><circle class="outline" cx="0" cy="0" r="32.5" fill="#57C7E3" stroke="#23b3d7" stroke-width="2px"/><text text-anchor="middle" pointer-events="none" font-family="sans-serif" dy="2.03125" font-size="32.5" fill="#FFFFFF"/><text text-anchor="middle" pointer-events="none" y="5" font-size="10px" fill="#FFFFFF" font-family="sans-serif"> Knin</text></g><g class="node" transform="translate(-344.2613509909569,177.34603611841106)"><circle class="outline" cx="0" cy="0" r="32.5" fill="#57C7E3" stroke="#23b3d7" stroke-width="2px"/><text text-anchor="middle" pointer-events="none" font-family="sans-serif" dy="2.03125" font-size="32.5" fill="#FFFFFF"/><text text-anchor="middle" pointer-events="none" y="5" font-size="10px" fill="#FFFFFF" font-family="sans-serif"> Sibenik</text></g><g class="node" transform="translate(-258.3399724776008,260.9493314558303)"><circle class="outline" cx="0" cy="0" r="32.5" fill="#57C7E3" stroke="#23b3d7" stroke-width="2px"/><text text-anchor="middle" pointer-events="none" font-family="sans-serif" dy="2.03125" font-size="32.5" fill="#FFFFFF"/><text text-anchor="middle" pointer-events="none" y="5" font-size="10px" fill="#FFFFFF" font-family="sans-serif"> Kastela</text></g><g class="node" transform="translate(-190.93619770978853,336.2404337094328)"><circle class="outline" cx="0" cy="0" r="32.5" fill="#57C7E3" stroke="#23b3d7" stroke-width="2px"/><text text-anchor="middle" pointer-events="none" font-family="sans-serif" dy="2.03125" font-size="32.5" fill="#FFFFFF"/><text text-anchor="middle" pointer-events="none" y="5" font-size="10px" fill="#FFFFFF" font-family="sans-serif"> Split</text></g><g class="node" transform="translate(-124.51589250065274,242.90824069484674)"><circle class="outline" cx="0" cy="0" r="32.5" fill="#57C7E3" stroke="#23b3d7" stroke-width="2px"/><text text-anchor="middle" pointer-events="none" font-family="sans-serif" dy="2.03125" font-size="32.5" fill="#FFFFFF"/><text text-anchor="middle" pointer-events="none" y="5" font-size="10px" fill="#FFFFFF" font-family="sans-serif"> Sinj</text></g><g class="node" transform="translate(-81.24200605470875,409.8413358378804)"><circle class="outline" cx="0" cy="0" r="32.5" fill="#57C7E3" stroke="#23b3d7" stroke-width="2px"/><text text-anchor="middle" pointer-events="none" font-family="sans-serif" dy="2.03125" font-size="32.5" fill="#FFFFFF"/><text text-anchor="middle" pointer-events="none" y="5" font-size="10px" fill="#FFFFFF" font-family="sans-serif"> Makarska</text></g><g class="node" transform="translate(11.610763460377592,308.7978978575708)"><circle class="outline" cx="0" cy="0" r="32.5" fill="#57C7E3" stroke="#23b3d7" stroke-width="2px"/><text text-anchor="middle" pointer-events="none" font-family="sans-serif" dy="2.03125" font-size="32.5" fill="#FFFFFF"/><text text-anchor="middle" pointer-events="none" y="5" font-size="10px" fill="#FFFFFF" font-family="sans-serif"> Imotski</text></g><g class="node" transform="translate(22.215717312112822,513.0860081712888)"><circle class="outline" cx="0" cy="0" r="32.5" fill="#57C7E3" stroke="#23b3d7" stroke-width="2px"/><text text-anchor="middle" pointer-events="none" font-family="sans-serif" dy="2.03125" font-size="32.5" fill="#FFFFFF"/><text text-anchor="middle" pointer-events="none" y="5" font-size="10px" fill="#FFFFFF" font-family="sans-serif"> Dubrovnik</text></g></g></svg>